<svg width="234" height="48" viewBox="0 0 234 48" fill="none" xmlns="http://www.w3.org/2000/svg">
<path d="M8.6295 31V11.832H1.0775V9.656H18.4535V11.832H10.9335V31H8.6295ZM25.0583 31.48C23.5436 31.48 22.2316 31.1707 21.1223 30.552C20.0129 29.912 19.1596 28.9627 18.5623 27.704C17.9649 26.4453 17.6663 24.8773 17.6663 23C17.6663 20.248 18.2849 18.1893 19.5223 16.824C20.7809 15.4373 22.4983 14.744 24.6743 14.744C26.3809 14.744 27.7463 15.128 28.7703 15.896C29.8156 16.664 30.5623 17.6987 31.0103 19C31.4583 20.3013 31.6716 21.7733 31.6503 23.416H18.8183L18.9783 21.304H30.1463L29.2503 21.624C29.1863 20.024 28.7809 18.8293 28.0343 18.04C27.3089 17.2507 26.1889 16.856 24.6743 16.856C23.6289 16.856 22.7543 17.048 22.0503 17.432C21.3676 17.816 20.8556 18.488 20.5143 19.448C20.1729 20.3867 20.0023 21.7093 20.0023 23.416C20.0023 25.3573 20.4503 26.84 21.3463 27.864C22.2636 28.8667 23.5436 29.368 25.1863 29.368C25.9756 29.368 26.7009 29.3147 27.3623 29.208C28.0236 29.08 28.6316 28.9093 29.1863 28.696C29.7409 28.4827 30.2316 28.248 30.6583 27.992V30.36C29.8903 30.7227 29.0369 31 28.0983 31.192C27.1809 31.384 26.1676 31.48 25.0583 31.48ZM42.6543 31.256C41.8009 31.256 40.9263 31.1493 40.0303 30.936C39.1556 30.7013 38.3449 30.296 37.5983 29.72C36.8729 29.1227 36.2863 28.28 35.8383 27.192C35.3903 26.104 35.1663 24.7067 35.1663 23C35.1663 21.2933 35.3903 19.9067 35.8383 18.84C36.2863 17.752 36.8729 16.9093 37.5983 16.312C38.3449 15.7147 39.1556 15.3093 40.0303 15.096C40.9263 14.8613 41.8009 14.744 42.6543 14.744C43.4649 14.744 44.2649 14.8187 45.0543 14.968C45.8649 15.1173 46.6436 15.3413 47.3903 15.64V17.848C46.6863 17.5493 45.9609 17.3253 45.2143 17.176C44.4676 17.0267 43.6996 16.952 42.9103 16.952C41.0116 16.952 39.6249 17.432 38.7503 18.392C37.8969 19.352 37.4703 20.888 37.4703 23C37.4703 25.1333 37.8969 26.68 38.7503 27.64C39.6249 28.5787 41.0116 29.048 42.9103 29.048C43.6996 29.048 44.4676 28.9733 45.2143 28.824C45.9609 28.6747 46.6863 28.4507 47.3903 28.152V30.392C46.6436 30.6693 45.8649 30.8827 45.0543 31.032C44.2649 31.1813 43.4649 31.256 42.6543 31.256ZM51.7163 31V7.96H54.0203V16.824L53.7643 16.216C54.5749 15.768 55.4283 15.416 56.3243 15.16C57.2203 14.8827 58.0629 14.744 58.8523 14.744C60.1749 14.744 61.2843 14.9893 62.1803 15.48C63.0976 15.9707 63.7909 16.7173 64.2603 17.72C64.7509 18.7013 64.9963 19.9707 64.9963 21.528V31H62.6923V21.528C62.6923 20.0347 62.3509 18.8827 61.6683 18.072C60.9856 17.2613 59.9616 16.856 58.5963 16.856C57.8496 16.856 57.0923 16.9627 56.3243 17.176C55.5776 17.3893 54.8096 17.7093 54.0203 18.136V31H51.7163ZM73.3865 22.072L79.3385 14.808H85.1305L76.1385 24.312L73.3865 22.072ZM74.4105 31H69.6745V8.696H74.4745L74.4105 31ZM77.0025 19.992L85.5465 31H79.4985L73.6105 23.224L77.0025 19.992ZM88.487 16.184C88.8923 15.9707 89.4257 15.7573 90.087 15.544C90.7483 15.3093 91.4737 15.1067 92.263 14.936C93.0523 14.7653 93.8417 14.6267 94.631 14.52C95.4417 14.4133 96.1883 14.36 96.871 14.36C98.3217 14.36 99.559 14.552 100.583 14.936C101.607 15.2987 102.386 15.896 102.919 16.728C103.474 17.56 103.751 18.6907 103.751 20.12V31H98.983V21.08C98.983 20.6747 98.919 20.3013 98.791 19.96C98.6843 19.6187 98.5137 19.3307 98.279 19.096C98.0443 18.84 97.7243 18.648 97.319 18.52C96.9137 18.3707 96.423 18.296 95.847 18.296C95.3563 18.296 94.8657 18.36 94.375 18.488C93.8843 18.5947 93.511 18.712 93.255 18.84V31H88.487V16.184ZM115.283 31.48C112.552 31.48 110.494 30.7547 109.107 29.304C107.742 27.832 107.059 25.6773 107.059 22.84C107.059 19.7893 107.752 17.6027 109.139 16.28C110.547 14.936 112.595 14.264 115.283 14.264C117.096 14.264 118.611 14.5733 119.827 15.192C121.064 15.7893 121.992 16.7173 122.611 17.976C123.251 19.2347 123.571 20.856 123.571 22.84C123.571 25.6773 122.856 27.832 121.427 29.304C119.998 30.7547 117.95 31.48 115.283 31.48ZM115.283 27.672C116.072 27.672 116.723 27.4907 117.235 27.128C117.768 26.744 118.163 26.2 118.419 25.496C118.696 24.7707 118.835 23.8853 118.835 22.84C118.835 21.6453 118.696 20.7067 118.419 20.024C118.163 19.32 117.768 18.8187 117.235 18.52C116.702 18.2 116.051 18.04 115.283 18.04C114.472 18.04 113.811 18.2 113.299 18.52C112.787 18.84 112.403 19.352 112.147 20.056C111.912 20.7387 111.795 21.6667 111.795 22.84C111.795 24.4613 112.072 25.6773 112.627 26.488C113.203 27.2773 114.088 27.672 115.283 27.672ZM129.927 31L124.487 14.808H129.639L133.255 27.896L131.751 27.96L135.175 14.808H138.695L142.055 27.576H140.871L144.327 14.808H149.383L144.007 31H139.687L136.487 20.536L137.287 20.632L134.247 31H129.927ZM157.036 31H152.299V8.696H157.036V31ZM168.596 31.48C166.975 31.48 165.535 31.1493 164.276 30.488C163.039 29.8053 162.068 28.8453 161.364 27.608C160.682 26.3493 160.34 24.856 160.34 23.128C160.34 20.312 161.034 18.136 162.42 16.6C163.828 15.0427 165.834 14.264 168.436 14.264C170.228 14.264 171.668 14.648 172.756 15.416C173.866 16.184 174.676 17.304 175.188 18.776C175.7 20.248 175.946 22.04 175.924 24.152H163.604L163.092 21.112H171.988L171.284 22.616C171.263 20.888 171.018 19.672 170.548 18.968C170.079 18.264 169.311 17.912 168.244 17.912C167.647 17.912 167.103 18.0613 166.612 18.36C166.143 18.6587 165.77 19.16 165.492 19.864C165.236 20.5467 165.108 21.496 165.108 22.712C165.108 24.248 165.471 25.432 166.196 26.264C166.943 27.096 168.127 27.512 169.748 27.512C170.346 27.512 170.932 27.448 171.508 27.32C172.106 27.1707 172.66 27 173.172 26.808C173.684 26.616 174.122 26.4453 174.484 26.296V30.392C173.716 30.712 172.852 30.968 171.892 31.16C170.954 31.3733 169.855 31.48 168.596 31.48ZM186.981 31.48C185.722 31.48 184.56 31.3413 183.493 31.064C182.448 30.7867 181.541 30.328 180.773 29.688C180.005 29.0267 179.397 28.1307 178.949 27C178.522 25.8693 178.309 24.4613 178.309 22.776C178.309 20.152 178.949 18.0827 180.229 16.568C181.53 15.0533 183.472 14.296 186.053 14.296C186.394 14.296 186.842 14.328 187.397 14.392C187.952 14.4347 188.528 14.5627 189.125 14.776C189.722 14.9893 190.256 15.352 190.725 15.864L189.765 17.336V8.152H194.501V26.776C194.501 27.5653 194.288 28.2587 193.861 28.856C193.434 29.432 192.858 29.912 192.133 30.296C191.429 30.68 190.629 30.968 189.733 31.16C188.837 31.3733 187.92 31.48 186.981 31.48ZM187.173 27.48C187.941 27.48 188.56 27.384 189.029 27.192C189.52 26.9787 189.765 26.6693 189.765 26.264V18.808C189.381 18.5947 188.965 18.4347 188.517 18.328C188.09 18.2 187.674 18.136 187.269 18.136C186.373 18.136 185.616 18.2853 184.997 18.584C184.378 18.8827 183.909 19.384 183.589 20.088C183.29 20.792 183.141 21.7413 183.141 22.936C183.141 23.8747 183.269 24.6853 183.525 25.368C183.781 26.0293 184.197 26.552 184.773 26.936C185.37 27.2987 186.17 27.48 187.173 27.48ZM204.945 31.48C203.473 31.3947 202.204 31.0533 201.137 30.456C200.092 29.8587 199.27 28.984 198.673 27.832C198.097 26.6587 197.809 25.1867 197.809 23.416C197.809 21.624 198.033 20.1413 198.481 18.968C198.929 17.7733 199.548 16.8453 200.337 16.184C201.148 15.5227 202.118 15.0533 203.249 14.776C204.38 14.4987 205.638 14.36 207.025 14.36C208.369 14.36 209.542 14.5307 210.545 14.872C211.548 15.2133 212.326 15.704 212.881 16.344C213.436 16.984 213.713 17.7733 213.713 18.712V31.192C213.713 32.3227 213.532 33.3147 213.169 34.168C212.806 35.0427 212.262 35.768 211.537 36.344C210.833 36.9413 209.969 37.3893 208.945 37.688C207.942 37.9867 206.78 38.136 205.457 38.136C204.028 38.136 202.801 38.0293 201.777 37.816C200.774 37.624 200.006 37.3787 199.473 37.08V32.888C199.793 33.016 200.262 33.1867 200.881 33.4C201.5 33.6133 202.193 33.784 202.961 33.912C203.729 34.0613 204.497 34.136 205.265 34.136C206.268 34.136 207.036 33.9973 207.569 33.72C208.124 33.4427 208.508 33.0693 208.721 32.6C208.934 32.1307 209.041 31.5973 209.041 31V28.376L209.969 29.048C209.628 29.5387 209.222 29.9653 208.753 30.328C208.284 30.6907 207.729 30.968 207.089 31.16C206.47 31.3733 205.756 31.48 204.945 31.48ZM206.161 27.896C206.716 27.896 207.228 27.8427 207.697 27.736C208.166 27.608 208.614 27.4267 209.041 27.192V19.768C209.041 19.32 208.913 18.9787 208.657 18.744C208.401 18.5093 208.081 18.3493 207.697 18.264C207.313 18.1787 206.908 18.136 206.481 18.136C205.5 18.136 204.721 18.3493 204.145 18.776C203.59 19.2027 203.185 19.8 202.929 20.568C202.694 21.3147 202.577 22.168 202.577 23.128C202.577 24.6 202.908 25.7627 203.569 26.616C204.23 27.4693 205.094 27.896 206.161 27.896ZM225.034 31.48C223.412 31.48 221.972 31.1493 220.714 30.488C219.476 29.8053 218.506 28.8453 217.802 27.608C217.119 26.3493 216.778 24.856 216.778 23.128C216.778 20.312 217.471 18.136 218.858 16.6C220.266 15.0427 222.271 14.264 224.874 14.264C226.666 14.264 228.106 14.648 229.194 15.416C230.303 16.184 231.114 17.304 231.626 18.776C232.138 20.248 232.383 22.04 232.362 24.152H220.042L219.53 21.112H228.426L227.722 22.616C227.7 20.888 227.455 19.672 226.986 18.968C226.516 18.264 225.748 17.912 224.682 17.912C224.084 17.912 223.54 18.0613 223.05 18.36C222.58 18.6587 222.207 19.16 221.93 19.864C221.674 20.5467 221.546 21.496 221.546 22.712C221.546 24.248 221.908 25.432 222.634 26.264C223.38 27.096 224.564 27.512 226.186 27.512C226.783 27.512 227.37 27.448 227.946 27.32C228.543 27.1707 229.098 27 229.61 26.808C230.122 26.616 230.559 26.4453 230.922 26.296V30.392C230.154 30.712 229.29 30.968 228.33 31.16C227.391 31.3733 226.292 31.48 225.034 31.48Z" fill="black"/>
</svg>
