<svg width="34" height="180" viewBox="0 0 34 180" fill="none" xmlns="http://www.w3.org/2000/svg">
<path d="M16.9414 0L16.9414 153" stroke="url(#paint0_linear_976_2900)" stroke-width="3"/>
<g clip-path="url(#clip0_976_2900)">
<path d="M15.9787 174.686C16.253 174.929 16.6067 175.063 16.973 175.063C17.3394 175.063 17.6931 174.929 17.9674 174.686C18.8511 173.902 20.9061 171.695 20.9068 168.158L20.9028 167.524L24.7696 163.658C24.9102 163.518 25.0217 163.353 25.0977 163.17C25.1738 162.988 25.2127 162.792 25.2124 162.594L25.2111 158.045C25.2111 157.766 25.1335 157.493 24.9869 157.256C24.8404 157.019 24.6306 156.827 24.3811 156.703C24.1317 156.578 23.8525 156.526 23.5749 156.551C23.2972 156.576 23.0321 156.678 22.8093 156.846L19.9031 159.04L14.0416 159.04L11.1341 156.845C10.9115 156.677 10.6464 156.575 10.3688 156.55C10.0912 156.525 9.81205 156.578 9.563 156.703C9.41759 156.775 9.28485 156.871 9.16989 156.986C9.03048 157.125 8.91993 157.29 8.84461 157.472C8.76929 157.654 8.73069 157.848 8.73104 158.045L8.72972 162.594C8.72936 162.792 8.76833 162.988 8.84435 163.17C8.92037 163.353 9.03193 163.518 9.17255 163.658L13.0393 167.524L13.0393 168.157C13.0393 171.694 15.0943 173.901 15.9787 174.686ZM23.7089 162.597L20.9028 165.403L20.9034 160.163L23.7102 158.043L23.7089 162.597ZM19.4026 168.156C19.4058 169.178 19.1907 170.19 18.7719 171.122C18.353 172.055 17.74 172.887 16.9737 173.564C16.2053 172.889 15.5904 172.057 15.1703 171.124C14.7503 170.191 14.5347 169.179 14.5382 168.156L14.5395 160.539H19.4026V168.156ZM10.2332 162.597L10.2312 158.043L13.0393 160.163V165.403L10.2332 162.597ZM14.5196 157.051C14.1643 156.099 13.6373 153.577 16.4407 150.773C16.5814 150.632 16.7721 150.553 16.971 150.553C17.17 150.553 17.3607 150.632 17.5014 150.773C20.3048 153.577 19.7778 156.099 19.4232 157.052C19.3887 157.144 19.3364 157.228 19.2692 157.301C19.2021 157.373 19.1214 157.431 19.0317 157.472C18.9421 157.512 18.8453 157.535 18.7469 157.539C18.6484 157.542 18.5502 157.526 18.458 157.492C18.3657 157.457 18.2811 157.405 18.209 157.338C18.137 157.271 18.0788 157.19 18.038 157.1C17.9971 157.011 17.9743 156.914 17.9708 156.815C17.9674 156.717 17.9833 156.619 18.0178 156.527C18.2498 155.906 18.5654 154.34 16.971 152.415C15.3767 154.34 15.691 155.907 15.9243 156.527C15.9588 156.619 15.9747 156.717 15.9713 156.815C15.9678 156.914 15.945 157.011 15.9041 157.1C15.8632 157.19 15.8051 157.271 15.7331 157.338C15.661 157.405 15.5764 157.457 15.4841 157.492C15.3919 157.526 15.2937 157.542 15.1952 157.539C15.0968 157.535 15 157.512 14.9104 157.472C14.8207 157.431 14.74 157.373 14.6729 157.301C14.6057 157.228 14.5534 157.144 14.5189 157.052L14.5196 157.051Z" fill="#8EC5FF"/>
</g>
<defs>
<linearGradient id="paint0_linear_976_2900" x1="16.4414" y1="187" x2="16.4414" y2="0" gradientUnits="userSpaceOnUse">
<stop stop-color="#8EC5FF"/>
<stop offset="1" stop-color="#0F172A"/>
</linearGradient>
<clipPath id="clip0_976_2900">
<rect width="24" height="24" fill="white" transform="translate(33.9414 162.971) rotate(135)"/>
</clipPath>
</defs>
</svg>
