<svg width="245" height="48" viewBox="0 0 245 48" fill="none" xmlns="http://www.w3.org/2000/svg">
<path d="M12.6608 31V11.832H5.10875V9.656H22.4848V11.832H14.9648V31H12.6608ZM29.0895 31.48C27.5748 31.48 26.2628 31.1707 25.1535 30.552C24.0442 29.912 23.1908 28.9627 22.5935 27.704C21.9962 26.4453 21.6975 24.8773 21.6975 23C21.6975 20.248 22.3162 18.1893 23.5535 16.824C24.8122 15.4373 26.5295 14.744 28.7055 14.744C30.4122 14.744 31.7775 15.128 32.8015 15.896C33.8468 16.664 34.5935 17.6987 35.0415 19C35.4895 20.3013 35.7028 21.7733 35.6815 23.416H22.8495L23.0095 21.304H34.1775L33.2815 21.624C33.2175 20.024 32.8122 18.8293 32.0655 18.04C31.3402 17.2507 30.2202 16.856 28.7055 16.856C27.6602 16.856 26.7855 17.048 26.0815 17.432C25.3988 17.816 24.8868 18.488 24.5455 19.448C24.2042 20.3867 24.0335 21.7093 24.0335 23.416C24.0335 25.3573 24.4815 26.84 25.3775 27.864C26.2948 28.8667 27.5748 29.368 29.2175 29.368C30.0068 29.368 30.7322 29.3147 31.3935 29.208C32.0548 29.08 32.6628 28.9093 33.2175 28.696C33.7722 28.4827 34.2628 28.248 34.6895 27.992V30.36C33.9215 30.7227 33.0682 31 32.1295 31.192C31.2122 31.384 30.1988 31.48 29.0895 31.48ZM46.6855 31.256C45.8322 31.256 44.9575 31.1493 44.0615 30.936C43.1868 30.7013 42.3762 30.296 41.6295 29.72C40.9042 29.1227 40.3175 28.28 39.8695 27.192C39.4215 26.104 39.1975 24.7067 39.1975 23C39.1975 21.2933 39.4215 19.9067 39.8695 18.84C40.3175 17.752 40.9042 16.9093 41.6295 16.312C42.3762 15.7147 43.1868 15.3093 44.0615 15.096C44.9575 14.8613 45.8322 14.744 46.6855 14.744C47.4962 14.744 48.2962 14.8187 49.0855 14.968C49.8962 15.1173 50.6748 15.3413 51.4215 15.64V17.848C50.7175 17.5493 49.9922 17.3253 49.2455 17.176C48.4988 17.0267 47.7308 16.952 46.9415 16.952C45.0428 16.952 43.6562 17.432 42.7815 18.392C41.9282 19.352 41.5015 20.888 41.5015 23C41.5015 25.1333 41.9282 26.68 42.7815 27.64C43.6562 28.5787 45.0428 29.048 46.9415 29.048C47.7308 29.048 48.4988 28.9733 49.2455 28.824C49.9922 28.6747 50.7175 28.4507 51.4215 28.152V30.392C50.6748 30.6693 49.8962 30.8827 49.0855 31.032C48.2962 31.1813 47.4962 31.256 46.6855 31.256ZM55.7475 31V7.96H58.0515V16.824L57.7955 16.216C58.6062 15.768 59.4595 15.416 60.3555 15.16C61.2515 14.8827 62.0942 14.744 62.8835 14.744C64.2062 14.744 65.3155 14.9893 66.2115 15.48C67.1288 15.9707 67.8222 16.7173 68.2915 17.72C68.7822 18.7013 69.0275 19.9707 69.0275 21.528V31H66.7235V21.528C66.7235 20.0347 66.3822 18.8827 65.6995 18.072C65.0168 17.2613 63.9928 16.856 62.6275 16.856C61.8808 16.856 61.1235 16.9627 60.3555 17.176C59.6088 17.3893 58.8408 17.7093 58.0515 18.136V31H55.7475ZM78.8258 24.6L77.0658 21.304L85.5778 9.656H92.1058L78.8258 24.6ZM73.8658 31V9.656H79.0498V31H73.8658ZM83.4658 17.784L92.7778 31H86.2818L79.4658 21.112L83.4658 17.784ZM95.4557 16.184C95.8611 15.9707 96.3944 15.7573 97.0558 15.544C97.7171 15.3093 98.4424 15.1067 99.2318 14.936C100.021 14.7653 100.81 14.6267 101.6 14.52C102.41 14.4133 103.157 14.36 103.84 14.36C105.29 14.36 106.528 14.552 107.552 14.936C108.576 15.2987 109.354 15.896 109.888 16.728C110.442 17.56 110.72 18.6907 110.72 20.12V31H105.952V21.08C105.952 20.6747 105.888 20.3013 105.76 19.96C105.653 19.6187 105.482 19.3307 105.248 19.096C105.013 18.84 104.693 18.648 104.288 18.52C103.882 18.3707 103.392 18.296 102.816 18.296C102.325 18.296 101.834 18.36 101.344 18.488C100.853 18.5947 100.48 18.712 100.224 18.84V31H95.4557V16.184ZM122.252 31.48C119.521 31.48 117.462 30.7547 116.076 29.304C114.71 27.832 114.028 25.6773 114.028 22.84C114.028 19.7893 114.721 17.6027 116.108 16.28C117.516 14.936 119.564 14.264 122.252 14.264C124.065 14.264 125.58 14.5733 126.796 15.192C128.033 15.7893 128.961 16.7173 129.58 17.976C130.22 19.2347 130.54 20.856 130.54 22.84C130.54 25.6773 129.825 27.832 128.396 29.304C126.966 30.7547 124.918 31.48 122.252 31.48ZM122.252 27.672C123.041 27.672 123.692 27.4907 124.204 27.128C124.737 26.744 125.132 26.2 125.388 25.496C125.665 24.7707 125.804 23.8853 125.804 22.84C125.804 21.6453 125.665 20.7067 125.388 20.024C125.132 19.32 124.737 18.8187 124.204 18.52C123.67 18.2 123.02 18.04 122.252 18.04C121.441 18.04 120.78 18.2 120.268 18.52C119.756 18.84 119.372 19.352 119.116 20.056C118.881 20.7387 118.764 21.6667 118.764 22.84C118.764 24.4613 119.041 25.6773 119.596 26.488C120.172 27.2773 121.057 27.672 122.252 27.672ZM136.896 31L131.456 14.808H136.608L140.224 27.896L138.72 27.96L142.144 14.808H145.664L149.024 27.576H147.84L151.296 14.808H156.352L150.976 31H146.656L143.456 20.536L144.256 20.632L141.216 31H136.896ZM164.004 31H159.268V8.696H164.004V31ZM175.565 31.48C173.944 31.48 172.504 31.1493 171.245 30.488C170.008 29.8053 169.037 28.8453 168.333 27.608C167.65 26.3493 167.309 24.856 167.309 23.128C167.309 20.312 168.002 18.136 169.389 16.6C170.797 15.0427 172.802 14.264 175.405 14.264C177.197 14.264 178.637 14.648 179.725 15.416C180.834 16.184 181.645 17.304 182.157 18.776C182.669 20.248 182.914 22.04 182.893 24.152H170.573L170.061 21.112H178.957L178.253 22.616C178.232 20.888 177.986 19.672 177.517 18.968C177.048 18.264 176.28 17.912 175.213 17.912C174.616 17.912 174.072 18.0613 173.581 18.36C173.112 18.6587 172.738 19.16 172.461 19.864C172.205 20.5467 172.077 21.496 172.077 22.712C172.077 24.248 172.44 25.432 173.165 26.264C173.912 27.096 175.096 27.512 176.717 27.512C177.314 27.512 177.901 27.448 178.477 27.32C179.074 27.1707 179.629 27 180.141 26.808C180.653 26.616 181.09 26.4453 181.453 26.296V30.392C180.685 30.712 179.821 30.968 178.861 31.16C177.922 31.3733 176.824 31.48 175.565 31.48ZM193.95 31.48C192.691 31.48 191.528 31.3413 190.462 31.064C189.416 30.7867 188.51 30.328 187.742 29.688C186.974 29.0267 186.366 28.1307 185.918 27C185.491 25.8693 185.278 24.4613 185.278 22.776C185.278 20.152 185.918 18.0827 187.198 16.568C188.499 15.0533 190.44 14.296 193.022 14.296C193.363 14.296 193.811 14.328 194.366 14.392C194.92 14.4347 195.496 14.5627 196.094 14.776C196.691 14.9893 197.224 15.352 197.694 15.864L196.734 17.336V8.152H201.47V26.776C201.47 27.5653 201.256 28.2587 200.83 28.856C200.403 29.432 199.827 29.912 199.102 30.296C198.398 30.68 197.598 30.968 196.702 31.16C195.806 31.3733 194.888 31.48 193.95 31.48ZM194.142 27.48C194.91 27.48 195.528 27.384 195.998 27.192C196.488 26.9787 196.734 26.6693 196.734 26.264V18.808C196.35 18.5947 195.934 18.4347 195.486 18.328C195.059 18.2 194.643 18.136 194.238 18.136C193.342 18.136 192.584 18.2853 191.966 18.584C191.347 18.8827 190.878 19.384 190.558 20.088C190.259 20.792 190.11 21.7413 190.11 22.936C190.11 23.8747 190.238 24.6853 190.494 25.368C190.75 26.0293 191.166 26.552 191.742 26.936C192.339 27.2987 193.139 27.48 194.142 27.48ZM211.914 31.48C210.442 31.3947 209.172 31.0533 208.106 30.456C207.06 29.8587 206.239 28.984 205.642 27.832C205.066 26.6587 204.778 25.1867 204.778 23.416C204.778 21.624 205.002 20.1413 205.45 18.968C205.898 17.7733 206.516 16.8453 207.306 16.184C208.116 15.5227 209.087 15.0533 210.218 14.776C211.348 14.4987 212.607 14.36 213.994 14.36C215.338 14.36 216.511 14.5307 217.514 14.872C218.516 15.2133 219.295 15.704 219.85 16.344C220.404 16.984 220.682 17.7733 220.682 18.712V31.192C220.682 32.3227 220.5 33.3147 220.138 34.168C219.775 35.0427 219.231 35.768 218.506 36.344C217.802 36.9413 216.938 37.3893 215.914 37.688C214.911 37.9867 213.748 38.136 212.426 38.136C210.996 38.136 209.77 38.0293 208.746 37.816C207.743 37.624 206.975 37.3787 206.442 37.08V32.888C206.762 33.016 207.231 33.1867 207.85 33.4C208.468 33.6133 209.162 33.784 209.93 33.912C210.698 34.0613 211.466 34.136 212.234 34.136C213.236 34.136 214.004 33.9973 214.538 33.72C215.092 33.4427 215.476 33.0693 215.69 32.6C215.903 32.1307 216.01 31.5973 216.01 31V28.376L216.938 29.048C216.596 29.5387 216.191 29.9653 215.722 30.328C215.252 30.6907 214.698 30.968 214.058 31.16C213.439 31.3733 212.724 31.48 211.914 31.48ZM213.13 27.896C213.684 27.896 214.196 27.8427 214.666 27.736C215.135 27.608 215.583 27.4267 216.01 27.192V19.768C216.01 19.32 215.882 18.9787 215.626 18.744C215.37 18.5093 215.05 18.3493 214.666 18.264C214.282 18.1787 213.876 18.136 213.45 18.136C212.468 18.136 211.69 18.3493 211.114 18.776C210.559 19.2027 210.154 19.8 209.898 20.568C209.663 21.3147 209.546 22.168 209.546 23.128C209.546 24.6 209.876 25.7627 210.538 26.616C211.199 27.4693 212.063 27.896 213.13 27.896ZM232.003 31.48C230.381 31.48 228.941 31.1493 227.683 30.488C226.445 29.8053 225.475 28.8453 224.771 27.608C224.088 26.3493 223.747 24.856 223.747 23.128C223.747 20.312 224.44 18.136 225.827 16.6C227.235 15.0427 229.24 14.264 231.843 14.264C233.635 14.264 235.075 14.648 236.163 15.416C237.272 16.184 238.083 17.304 238.595 18.776C239.107 20.248 239.352 22.04 239.331 24.152H227.011L226.499 21.112H235.395L234.691 22.616C234.669 20.888 234.424 19.672 233.955 18.968C233.485 18.264 232.717 17.912 231.651 17.912C231.053 17.912 230.509 18.0613 230.019 18.36C229.549 18.6587 229.176 19.16 228.899 19.864C228.643 20.5467 228.515 21.496 228.515 22.712C228.515 24.248 228.877 25.432 229.603 26.264C230.349 27.096 231.533 27.512 233.155 27.512C233.752 27.512 234.339 27.448 234.915 27.32C235.512 27.1707 236.067 27 236.579 26.808C237.091 26.616 237.528 26.4453 237.891 26.296V30.392C237.123 30.712 236.259 30.968 235.299 31.16C234.36 31.3733 233.261 31.48 232.003 31.48Z" fill="black"/>
</svg>
