<svg width="34" height="19" viewBox="0 0 34 19" fill="none" xmlns="http://www.w3.org/2000/svg">
<path d="M24.7273 0H9.27273C4.15727 0 0 4.1508 0 9.25829C0 14.3658 4.15727 18.5166 9.27273 18.5166H24.7273C29.8427 18.5166 34 14.3658 34 9.25829C34 4.1508 29.8427 0 24.7273 0ZM24.7273 15.4305H9.27273C5.85727 15.4305 3.09091 12.6684 3.09091 9.25829C3.09091 5.84815 5.85727 3.0861 9.27273 3.0861H24.7273C28.1427 3.0861 30.9091 5.84815 30.9091 9.25829C30.9091 12.6684 28.1427 15.4305 24.7273 15.4305ZM9.27273 4.62914C6.70727 4.62914 4.63636 6.69683 4.63636 9.25829C4.63636 11.8197 6.70727 13.8874 9.27273 13.8874C11.8382 13.8874 13.9091 11.8197 13.9091 9.25829C13.9091 6.69683 11.8382 4.62914 9.27273 4.62914Z" fill="white"/>
</svg>
