<svg width="32" height="33" viewBox="0 0 32 33" fill="none" xmlns="http://www.w3.org/2000/svg">
<path d="M25.7076 24.7926C25.8005 24.8855 25.8742 24.9958 25.9245 25.1172C25.9747 25.2386 26.0006 25.3687 26.0006 25.5001C26.0006 25.6315 25.9747 25.7616 25.9245 25.883C25.8742 26.0044 25.8005 26.1147 25.7076 26.2076C25.6147 26.3005 25.5044 26.3742 25.383 26.4245C25.2616 26.4747 25.1315 26.5006 25.0001 26.5006C24.8687 26.5006 24.7386 26.4747 24.6172 26.4245C24.4958 26.3742 24.3855 26.3005 24.2926 26.2076L16.0001 17.9138L7.70757 26.2076C7.51993 26.3952 7.26543 26.5006 7.00007 26.5006C6.7347 26.5006 6.48021 26.3952 6.29257 26.2076C6.10493 26.0199 5.99951 25.7654 5.99951 25.5001C5.99951 25.2347 6.10493 24.9802 6.29257 24.7926L14.5863 16.5001L6.29257 8.20757C6.10493 8.01993 5.99951 7.76543 5.99951 7.50007C5.99951 7.2347 6.10493 6.98021 6.29257 6.79257C6.48021 6.60493 6.7347 6.49951 7.00007 6.49951C7.26543 6.49951 7.51993 6.60493 7.70757 6.79257L16.0001 15.0863L24.2926 6.79257C24.4802 6.60493 24.7347 6.49951 25.0001 6.49951C25.2654 6.49951 25.5199 6.60493 25.7076 6.79257C25.8952 6.98021 26.0006 7.2347 26.0006 7.50007C26.0006 7.76543 25.8952 8.01993 25.7076 8.20757L17.4138 16.5001L25.7076 24.7926Z" fill="white"/>
</svg>
