<svg width="24" height="25" viewBox="0 0 24 25" fill="none" xmlns="http://www.w3.org/2000/svg">
<path d="M12 8.84C13.8 8.84 15.2727 10.3318 15.2727 12.155C15.2727 13.9783 13.8 15.47 12 15.47C10.2 15.47 8.72727 13.9783 8.72727 12.155C8.72727 10.3318 10.2 8.84 12 8.84ZM12 6.63C8.98909 6.63 6.54545 9.1052 6.54545 12.155C6.54545 15.2048 8.98909 17.68 12 17.68C15.0109 17.68 17.4545 15.2048 17.4545 12.155C17.4545 9.1052 15.0109 6.63 12 6.63ZM1.09091 13.26H3.27273C3.87273 13.26 4.36364 12.7628 4.36364 12.155C4.36364 11.5473 3.87273 11.05 3.27273 11.05H1.09091C0.490909 11.05 0 11.5473 0 12.155C0 12.7628 0.490909 13.26 1.09091 13.26ZM20.7273 13.26H22.9091C23.5091 13.26 24 12.7628 24 12.155C24 11.5473 23.5091 11.05 22.9091 11.05H20.7273C20.1273 11.05 19.6364 11.5473 19.6364 12.155C19.6364 12.7628 20.1273 13.26 20.7273 13.26ZM10.9091 1.105V3.315C10.9091 3.92275 11.4 4.42 12 4.42C12.6 4.42 13.0909 3.92275 13.0909 3.315V1.105C13.0909 0.49725 12.6 0 12 0C11.4 0 10.9091 0.49725 10.9091 1.105ZM10.9091 20.995V23.205C10.9091 23.8128 11.4 24.31 12 24.31C12.6 24.31 13.0909 23.8128 13.0909 23.205V20.995C13.0909 20.3873 12.6 19.89 12 19.89C11.4 19.89 10.9091 20.3873 10.9091 20.995ZM5.44364 3.9559C5.01818 3.52495 4.32 3.52495 3.90545 3.9559C3.48 4.38685 3.48 5.09405 3.90545 5.51395L5.06182 6.68525C5.48727 7.1162 6.18545 7.1162 6.6 6.68525C7.01455 6.2543 7.02545 5.5471 6.6 5.1272L5.44364 3.9559ZM18.9382 17.6248C18.5127 17.1938 17.8145 17.1938 17.4 17.6248C16.9745 18.0557 16.9745 18.7629 17.4 19.1828L18.5564 20.3541C18.9818 20.7851 19.68 20.7851 20.0945 20.3541C20.52 19.9232 20.52 19.216 20.0945 18.7961L18.9382 17.6248ZM20.0945 5.51395C20.52 5.083 20.52 4.3758 20.0945 3.9559C19.6691 3.52495 18.9709 3.52495 18.5564 3.9559L17.4 5.1272C16.9745 5.55815 16.9745 6.26535 17.4 6.68525C17.8255 7.10515 18.5236 7.1162 18.9382 6.68525L20.0945 5.51395ZM6.6 19.1828C7.02545 18.7519 7.02545 18.0447 6.6 17.6248C6.17455 17.1938 5.47636 17.1938 5.06182 17.6248L3.90545 18.7961C3.48 19.227 3.48 19.9342 3.90545 20.3541C4.33091 20.774 5.02909 20.7851 5.44364 20.3541L6.6 19.1828Z" fill="white"/>
</svg>
